# xmcd
#
# Track frame offsets: 
#        150
#        13937
#        24643
#        34632
#        52053
#        65665
#        81696
#        98385
#        121433
#        133348
#        148132
#
# Disc length: 2168 seconds
#
# Revision: 0
# Processed by: cddbd v1.5.2PL0 Copyright (c) Steve Scherf et al.
# Submitted via: ExactAudioCopy v0.99pb4
#
DISCID=a408760b
DTITLE=Jim Stafford - Jim Stafford
DYEAR=1974
DGENRE=Country
TTITLE0=Spiders and Snakes
TTITLE1=L. A. Mamma
TTITLE2=I Ain't Sharin' Sharon
TTITLE3=16 Little Red Noses and a Horse That Sweats
TTITLE4=Nifty Fifties Blues
TTITLE5=A Real Good Time
TTITLE6=Swamp Witch
TTITLE7=Medley: Mr. Bojangles - A Visit With an Old Friend
TTITLE8=Wildwood Weed
TTITLE9=The Last Chant
TTITLE10=My Girl Bill
EXTD=
EXTT0=
EXTT1=
EXTT2=
EXTT3=
EXTT4=
EXTT5=
EXTT6=
EXTT7=
EXTT8=
EXTT9=
EXTT10=
PLAYORDER=
